<?xml version="1.0" encoding="UTF-8" standalone="no"?>
<svg width="230px" height="209px" viewBox="0 0 230 209" version="1.1" xmlns="http://www.w3.org/2000/svg" xmlns:xlink="http://www.w3.org/1999/xlink">
    <!-- Generator: Sketch 3.8.3 (29802) - http://www.bohemiancoding.com/sketch -->
    <title>Elevated Ape</title>
    <desc>Created with Sketch.</desc>
    <defs>
        <rect id="path-1" x="0" y="-1.42108547e-14" width="230" height="170" rx="30"></rect>
        <mask id="mask-2" maskContentUnits="userSpaceOnUse" maskUnits="objectBoundingBox" x="0" y="0" width="230" height="170" fill="white">
            <use xlink:href="#path-1"></use>
        </mask>
        <mask id="mask-4" maskContentUnits="userSpaceOnUse" maskUnits="objectBoundingBox" x="0" y="0" width="230" height="170" fill="white">
            <use xlink:href="#path-1"></use>
        </mask>
        <rect id="path-5" x="0" y="-1.42108547e-14" width="230" height="170" rx="30"></rect>
        <mask id="mask-6" maskContentUnits="userSpaceOnUse" maskUnits="objectBoundingBox" x="0" y="0" width="230" height="170" fill="white">
            <use xlink:href="#path-5"></use>
        </mask>
        <path d="M19.5,49 C19.5194281,43.4154045 19.3628532,35.698172 14.4587697,27.5246995 C14.4587697,27.5246995 -0.449915259,30.497383 0.0104462205,22.693897 C0.4708077,14.890411 9.14933204,7.75458407e-11 17.6173419,-1.62003744e-12 C29.1367622,-1.09311892e-10 37.0200005,13.9879618 37.0200005,25.2685763 C33.8614284,30.6832713 21.7118845,27.3993885 22.1295876,27.5246995 C24.3531344,30.8600197 25.091733,38.6346886 25.2881596,45.1224581 C25.3876624,48.4089341 28.975924,51.8908269 27.6222503,53.6957252 C25.817352,55.9518481 23.7073475,56.9024492 21,56 C21,54.0119132 19.4926144,51.1229815 19.5,49 Z" id="path-7"></path>
    </defs>
    <g id="Page-1" stroke="none" stroke-width="1" fill="none" fill-rule="evenodd">
        <g id="Elevated-Apes-Copy" transform="translate(-54.000000, -44.000000)">
            <g id="Group" transform="translate(54.000000, 44.000000)">
                <g id="Elevated-Apes">
                    <mask id="mask-3" fill="white">
                        <use xlink:href="#path-1"></use>
                    </mask>
                    <g id="Combined-Shape" stroke="#979797" mask="url(#mask-2)" stroke-width="2">
                        <use mask="url(#mask-4)" xlink:href="#path-1"></use>
                    </g>
                    <polygon id="Rectangle-11" fill="#FFF0FF" mask="url(#mask-3)" points="104 -75 149 -75 126 108"></polygon>
                    <polygon id="Rectangle-11-Copy" fill="#FFF0FF" mask="url(#mask-3)" transform="translate(82.558380, 31.138868) rotate(-34.000000) translate(-82.558380, -31.138868) " points="60.0583796 -55.1006564 105.05838 -55.1006564 81.0109153 117.378393"></polygon>
                    <polygon id="Rectangle-11-Copy-2" fill="#FFF0FF" mask="url(#mask-3)" transform="translate(71.388094, 74.885594) rotate(-69.000000) translate(-71.388094, -74.885594) " points="52.3039067 7.35104504 90.4722822 -6.22927722 68.4513662 156.000465"></polygon>
                    <polygon id="Rectangle-11-Copy-3" fill="#FFF0FF" mask="url(#mask-3)" transform="translate(163.819496, 38.438778) rotate(-330.000000) translate(-163.819496, -38.438778) " points="141.319496 -53.0612218 186.319496 -53.0612218 163.319496 129.938778"></polygon>
                    <polygon id="Rectangle-11-Copy-4" fill="#FFF0FF" mask="url(#mask-3)" transform="translate(174.174580, 75.536349) rotate(-293.000000) translate(-174.174580, -75.536349) " points="159.746149 14.7402997 188.60301 24.8165908 174.651673 136.332398"></polygon>
                    <polygon id="Rectangle-11-Copy-5" fill="#FFF0FF" mask="url(#mask-3)" transform="translate(173.639977, 102.125347) rotate(-265.000000) translate(-173.639977, -102.125347) " points="159.9423 50.2617996 187.337654 47.8650155 172.204196 156.385678"></polygon>
                    <polygon id="Rectangle-11-Copy-6" fill="#FFF0FF" mask="url(#mask-3)" transform="translate(169.315246, 121.633752) rotate(-237.000000) translate(-169.315246, -121.633752) " points="155.670106 62.3100058 182.960387 64.8576685 171.534529 180.957497"></polygon>
                    <polygon id="Rectangle-11-Copy-7" fill="#FFF0FF" mask="url(#mask-3)" transform="translate(77.820314, 117.429684) rotate(-116.000000) translate(-77.820314, -117.429684) " points="62.0871875 68.009546 93.5534411 38.6646153 74.4860354 196.194753"></polygon>
                    <polygon id="Rectangle-11-Copy-8" fill="#FFF0FF" mask="url(#mask-3)" transform="translate(104.591191, 131.150154) rotate(-509.000000) translate(-104.591191, -131.150154) " points="94.177346 96.1671106 115.005036 81.3193064 102.270309 180.981001"></polygon>
                    <g id="Combined-Shape" mask="url(#mask-3)" stroke-width="16" stroke="#404040">
                        <use mask="url(#mask-6)" xlink:href="#path-5"></use>
                    </g>
                    <g id="Ape" mask="url(#mask-3)">
                        <g transform="translate(-33.000000, 14.000000)">
                            <path d="M162.381592,121.409739 C162.406268,114.316608 161.593229,106.341114 155.364434,95.9597884 C155.364434,95.9597884 136.428552,99.7354658 137.013268,89.824069 C137.597984,79.9126721 148.620789,61 159.376213,61 C174.007308,61 184.02,78.7664495 184.02,93.0942317 C180.008221,99.9715671 164.576791,95.8006279 165.107326,95.9597884 C167.931507,100.19606 168.869619,110.070855 169.119105,118.311128 C169.245486,122.485361 172.5329,126.907798 170.813566,129.200243 C168.521121,132.065799 167.948009,132.638911 164.509342,131.492688 C164.509342,128.967571 162.372211,124.106189 162.381592,121.409739 Z" id="Mushroom-Stroke" fill="#FFFFFF"></path>
                            <g id="Mushroom" stroke-width="1" fill="none" transform="translate(142.000000, 65.000000)">
                                <mask id="mask-8" fill="white">
                                    <use xlink:href="#path-7"></use>
                                </mask>
                                <use id="Rectangle-9" fill="#E04FA8" xlink:href="#path-7"></use>
                            </g>
                            <path d="M208.235254,139.921833 L194.835254,106.584833 C194.255254,105.140833 193.444254,103.915833 192.528254,102.980833 L180.331254,88.6658332 C178.727254,86.7828332 175.728254,86.8138332 173.634254,88.7358332 L172.686254,89.6058332 C170.592254,91.5278332 170.196254,94.6128332 171.800254,96.4968332 L174.215254,99.3308332 C172.640254,99.0758332 170.870254,99.7058332 169.606254,101.172833 L168.762254,102.151833 C166.898254,104.313833 166.850254,107.425833 168.655254,109.102833 L181.238254,120.790833 C181.238254,120.790833 183.019693,125.483275 183.724409,126.785486 C184.665027,128.523608 186.174254,129.911833 186.174254,129.911833 L174.260254,120.780732 C173.800254,120.542732 173.315254,120.342732 172.802254,120.187732 L172.469254,120.051732 C171.538254,119.650732 170.592254,119.576732 169.658254,119.751732 C168.163254,119.784732 161.664156,122.92473 160.374156,123.62073 L151.170203,125.965706 C147.827203,127.770706 147.136203,131.197706 149.628203,133.620706 C152.120203,136.043706 161.858201,137.001597 168.439254,132.818732 C168.439254,132.818732 171.766515,139.415164 179.289358,144.57819 C178.661019,146.334065 180.976683,148.833019 180.348344,150.588893 C179.702096,152.394814 176.439254,154.776833 176.439254,154.776833 C172.652254,155.484833 169.223254,152.776833 166.699254,152.849833 L161.611254,145.863833 C159.182254,144.012833 160.258254,143.546833 152.540254,141.878833 C149.055254,141.697833 137.910254,140.719833 152.191254,152.375833 L156.412254,159.926833 C156.759254,160.454833 157.212254,160.904833 157.734254,161.282833 C157.865254,161.538833 158.034254,161.807833 158.253254,162.094833 L175.267254,177.001833 C181.571915,182.30681 190.566897,187.493594 196.730276,185.260673 C204.198423,182.555049 208.395236,171.131856 210.015254,163.833833 L208.863254,142.923833 C208.889254,142.076833 208.705254,141.090833 208.235254,139.921833 Z" id="Hand" fill="#D4B27E" transform="translate(177.560574, 136.533252) rotate(-295.000000) translate(-177.560574, -136.533252) "></path>
                            <g id="Face" stroke-width="1" fill="none">
                                <path d="M21.1692066,97 C22.1692066,97 3.66920661,90.5 1.16920661,83.7531967 C-0.6474685,77.2541961 -1.33079339,64 6.66920661,59.5 C6.16920661,38.5 43.5363397,18.6087093 43.6692066,18.5 C54.6692047,9.5 52.169203,-4.35353763e-08 52.1692047,-4.51028104e-16 C52.1692047,-4.51028104e-16 59.6692047,1.5 63.1692047,8.5 C68.1692047,-1 98.1692047,-5.5 96.6692047,24 C96.6692047,24 85.1692047,14 85.1692047,19 C85.0192222,25.4492464 83.1692047,34 105.669205,63 C109.669205,69.5 102.169205,80 96.6692047,80 C97.7545129,81.8968024 105.169205,84.5 102.669205,92 C111.169205,97.5 110.952733,103.60643 113.169205,108 C117.239604,116.068491 120.669205,121 127.169205,126.5 C129.381882,128.372265 127.169205,133 125.669205,132 C127.169205,135 124.669207,137.5 124.669207,137.5 C104,142 100.169207,173 72.6692066,172.5 C46.8892587,172.5 13.1692066,145 11.6692066,122 C10.5503726,114.521478 12.6692066,104.5 21.1692066,97 Z" id="Rectangle-1" fill="#404040"></path>
                                <path d="M41.1692066,117 C42.1692066,117 24.5,117 21.1692066,103.753197 C19.3525315,97.2541961 18.6692066,84 26.6692066,79.5 C41.1692066,72.9999998 47,114 47,114 C51,120.5 43.5,121 41.1692066,117 Z" id="Rectangle-1-Copy-2" fill="#D4B27E"></path>
                                <path d="M22.5000003,115.893597 C23.5000003,115.893597 35.5000012,123.499998 43.5000012,99.0000003 C50.4225335,93.5458837 57.5496656,82.7959116 61.0000012,77.4999998 C65.7736122,70.1729956 67.0000012,65.9999998 72.3901061,63.3081044 C81.0339137,58.6873176 93.3843068,59.7957739 106.000002,70.5000004 C110.500002,74.5000001 106.500002,82.0000009 101.000002,82.0000009 C102.08531,83.8968032 105.169205,84.5 102.669205,92 C111.169205,97.5 110.952733,103.60643 113.169205,108 C117.239604,116.068491 120.669205,121 127.169205,126.5 C129.117791,128.148803 127.634347,131.934577 126.228018,132.131808 C126.037418,132.158539 116.179033,134.619355 116.000002,134.500001 C116.066561,134.63312 125.794448,133.265253 125.845823,133.396228 C126.952262,136.216942 124.669207,137.5 124.669207,137.5 C104,142 100.169207,173 72.6692066,172.5 C46.8892587,172.5 13.1692066,145 11.6692066,122 C10.5503726,114.521478 14.0000003,123.393597 22.5000003,115.893597 Z" id="Rectangle-1-Copy" fill="#D4B27E"></path>
                                <path d="M59.4040913,85.0198322 C67.0633792,80.8793607 70.5683276,56.9985903 88.0683276,76.498591 C75.9620521,72.3266269 65.3926419,83.2686353 59.4040913,85.0198322 Z" id="Rectangle-1-Copy-3" fill="#404040" transform="translate(73.736209, 76.977620) rotate(-4.000000) translate(-73.736209, -76.977620) "></path>
                                <path d="M81.5,94 C85.6421356,94 91,91.6421356 91,87.5 C91,83.3578644 87.6421356,80 83.5,80 C79.3578644,80 70.5,84.3578644 70.5,88.5 C70.5,92.6421356 77.3578644,94 81.5,94 Z" id="Oval-1" fill="#FFFFFF"></path>
                                <path d="M101.5,92 C105.642136,92 105.5,89.6421356 105.5,85.5 C105.5,81.3578644 99.5,82.5 99.5,82.5 C99.5,82.5 90.5,83.9313962 90.5,86.5 C90.5,90.6421356 97.3578644,92 101.5,92 Z" id="Oval-1-Copy" fill="#FFFFFF"></path>
                                <circle id="Oval-2" fill="#404040" cx="85" cy="87" r="5"></circle>
                                <path d="M100,91 C102.761424,91 105,88.7614237 105,86 C105,83.2385763 102.5,81.5 100,82 C97.5,82.5 95,83.2385763 95,86 C95,88.7614237 97.2385763,91 100,91 Z" id="Oval-2-Copy" fill="#404040"></path>
                                <g id="Nose" transform="translate(106.070549, 101.636916) rotate(17.000000) translate(-106.070549, -101.636916) translate(98.570549, 94.636916)" fill="#404040">
                                    <ellipse id="Oval-11-Copy" transform="translate(6.879900, 9.846165) rotate(-341.000000) translate(-6.879900, -9.846165) " cx="6.87990026" cy="9.84616545" rx="6.54500008" ry="2.02999997"></ellipse>
                                    <ellipse id="Oval-11-Copy-2" transform="translate(9.789446, 6.937075) rotate(-295.000000) translate(-9.789446, -6.937075) " cx="9.78944564" cy="6.93707454" rx="6.54545455" ry="2.02999997"></ellipse>
                                </g>
                            </g>
                        </g>
                    </g>
                </g>
                <text id="ape" font-family="Effra-Bold, Effra" font-size="30" font-weight="bold" letter-spacing="2" fill="#404040">
                    <tspan x="156.7" y="203">ap</tspan>
                    <tspan x="193.25" y="203">e</tspan>
                </text>
                <text id="elevated" font-family="Effra-Bold, Effra" font-size="30" font-weight="bold" letter-spacing="2" fill="#E04FA8">
                    <tspan x="20.855" y="203">elevate</tspan>
                    <tspan x="133.195" y="203">d</tspan>
                </text>
            </g>
        </g>
    </g>
</svg>
