<?xml version="1.0" encoding="UTF-8" standalone="no"?>
<svg width="230px" height="209px" viewBox="0 0 230 209" version="1.1" xmlns="http://www.w3.org/2000/svg" xmlns:xlink="http://www.w3.org/1999/xlink">
    <!-- Generator: Sketch 3.8.3 (29802) - http://www.bohemiancoding.com/sketch -->
    <title>Elevated Ape</title>
    <desc>Created with Sketch.</desc>
    <defs>
        <rect id="path-1" x="0" y="-1.42108547e-14" width="230" height="170" rx="30"></rect>
        <mask id="mask-2" maskContentUnits="userSpaceOnUse" maskUnits="objectBoundingBox" x="0" y="0" width="230" height="170" fill="white">
            <use xlink:href="#path-1"></use>
        </mask>
        <mask id="mask-4" maskContentUnits="userSpaceOnUse" maskUnits="objectBoundingBox" x="0" y="0" width="230" height="170" fill="white">
            <use xlink:href="#path-1"></use>
        </mask>
        <rect id="path-5" x="0" y="-1.42108547e-14" width="230" height="170" rx="30"></rect>
        <mask id="mask-6" maskContentUnits="userSpaceOnUse" maskUnits="objectBoundingBox" x="0" y="0" width="230" height="170" fill="white">
            <use xlink:href="#path-5"></use>
        </mask>
        <path d="M19.5,49 C19.5194281,43.4154045 19.3628532,35.698172 14.4587697,27.5246995 C14.4587697,27.5246995 -0.449915259,30.497383 0.0104462205,22.693897 C0.4708077,14.890411 9.14933204,7.75458407e-11 17.6173419,-1.62003744e-12 C29.1367622,-1.09311892e-10 37.0200005,13.9879618 37.0200005,25.2685763 C33.8614284,30.6832713 21.7118845,27.3993885 22.1295876,27.5246995 C24.3531344,30.8600197 25.091733,38.6346886 25.2881596,45.1224581 C25.3876624,48.4089341 28.975924,51.8908269 27.6222503,53.6957252 C25.817352,55.9518481 23.7073475,56.9024492 21,56 C19.5,53.6957245 19.4926144,51.1229815 19.5,49 Z" id="path-7"></path>
    </defs>
    <g id="Page-1" stroke="none" stroke-width="1" fill="none" fill-rule="evenodd">
        <g id="Elevated-Apes-Copy" transform="translate(-54.000000, -44.000000)">
            <g id="Group" transform="translate(54.000000, 44.000000)">
                <g id="Elevated-Apes">
                    <mask id="mask-3" fill="white">
                        <use xlink:href="#path-1"></use>
                    </mask>
                    <g id="Combined-Shape" stroke="#979797" mask="url(#mask-2)" stroke-width="2">
                        <use mask="url(#mask-4)" xlink:href="#path-1"></use>
                    </g>
                    <polygon id="Rectangle-11" fill="#FFF0FF" mask="url(#mask-3)" points="104 -75 149 -75 126 108"></polygon>
                    <polygon id="Rectangle-11-Copy" fill="#FFF0FF" mask="url(#mask-3)" transform="translate(82.558380, 31.138868) rotate(-34.000000) translate(-82.558380, -31.138868) " points="60.0583796 -55.1006564 105.05838 -55.1006564 81.0109153 117.378393"></polygon>
                    <polygon id="Rectangle-11-Copy-2" fill="#FFF0FF" mask="url(#mask-3)" transform="translate(71.388094, 74.885594) rotate(-69.000000) translate(-71.388094, -74.885594) " points="52.3039067 7.35104504 90.4722822 -6.22927722 68.4513662 156.000465"></polygon>
                    <polygon id="Rectangle-11-Copy-3" fill="#FFF0FF" mask="url(#mask-3)" transform="translate(163.819496, 38.438778) rotate(-330.000000) translate(-163.819496, -38.438778) " points="141.319496 -53.0612218 186.319496 -53.0612218 163.319496 129.938778"></polygon>
                    <polygon id="Rectangle-11-Copy-4" fill="#FFF0FF" mask="url(#mask-3)" transform="translate(174.174580, 75.536349) rotate(-293.000000) translate(-174.174580, -75.536349) " points="159.746149 14.7402997 188.60301 24.8165908 174.651673 136.332398"></polygon>
                    <polygon id="Rectangle-11-Copy-5" fill="#FFF0FF" mask="url(#mask-3)" transform="translate(173.639977, 102.125347) rotate(-265.000000) translate(-173.639977, -102.125347) " points="159.9423 50.2617996 187.337654 47.8650155 172.204196 156.385678"></polygon>
                    <polygon id="Rectangle-11-Copy-6" fill="#FFF0FF" mask="url(#mask-3)" transform="translate(169.315246, 121.633752) rotate(-237.000000) translate(-169.315246, -121.633752) " points="155.670106 62.3100058 182.960387 64.8576685 171.534529 180.957497"></polygon>
                    <polygon id="Rectangle-11-Copy-7" fill="#FFF0FF" mask="url(#mask-3)" transform="translate(77.820314, 117.429684) rotate(-116.000000) translate(-77.820314, -117.429684) " points="62.0871875 68.009546 93.5534411 38.6646153 74.4860354 196.194753"></polygon>
                    <polygon id="Rectangle-11-Copy-8" fill="#FFF0FF" mask="url(#mask-3)" transform="translate(104.591191, 131.150154) rotate(-509.000000) translate(-104.591191, -131.150154) " points="94.177346 96.1671106 115.005036 81.3193064 102.270309 180.981001"></polygon>
                    <g id="Combined-Shape" mask="url(#mask-3)" stroke-width="16" stroke="#404040">
                        <use mask="url(#mask-6)" xlink:href="#path-5"></use>
                    </g>
                    <g id="Ape" mask="url(#mask-3)">
                        <g transform="translate(-33.000000, 14.000000)">
                            <path d="M163.381592,124.409739 C163.406268,117.316608 162.593229,109.341114 156.364434,98.9597884 C156.364434,98.9597884 137.428552,102.735466 138.013268,92.824069 C138.597984,82.9126721 149.620789,64 160.376213,64 C175.007308,64 185.02,81.7664495 185.02,96.0942317 C181.008221,102.971567 165.576791,98.8006279 166.107326,98.9597884 C168.931507,103.19606 169.869619,113.070855 170.119105,121.311128 C170.245486,125.485361 173.5329,129.907798 171.813566,132.200243 C169.521121,135.065799 168.948009,135.638911 165.509342,134.492688 C165.509342,131.967571 163.372211,127.106189 163.381592,124.409739 Z" id="Mushroom-Stroke" fill="#FFFFFF"></path>
                            <g id="Mushroom" stroke-width="1" fill="none" transform="translate(143.000000, 68.000000)">
                                <mask id="mask-8" fill="white">
                                    <use xlink:href="#path-7"></use>
                                </mask>
                                <use id="Rectangle-9" fill="#E04FA8" xlink:href="#path-7"></use>
                            </g>
                            <path d="M208.235254,139.921833 L194.835254,106.584833 C194.255254,105.140833 193.444254,103.915833 192.528254,102.980833 L180.331254,88.6658332 C178.727254,86.7828332 175.728254,86.8138332 173.634254,88.7358332 L172.686254,89.6058332 C170.592254,91.5278332 170.196254,94.6128332 171.800254,96.4968332 L174.215254,99.3308332 C172.640254,99.0758332 170.870254,99.7058332 169.606254,101.172833 L168.762254,102.151833 C166.898254,104.313833 166.850254,107.425833 168.655254,109.102833 L181.238254,120.790833 C181.238254,120.790833 183.019693,125.483275 183.724409,126.785486 C184.665027,128.523608 186.174254,129.911833 186.174254,129.911833 L174.260254,120.780732 C173.800254,120.542732 173.315254,120.342732 172.802254,120.187732 L172.469254,120.051732 C171.538254,119.650732 170.592254,119.576732 169.658254,119.751732 C168.163254,119.784732 161.664156,122.92473 160.374156,123.62073 L151.170203,125.965706 C147.827203,127.770706 147.136203,131.197706 149.628203,133.620706 C152.120203,136.043706 161.858201,137.001597 168.439254,132.818732 C168.439254,132.818732 171.766515,139.415164 179.289358,144.57819 C178.661019,146.334065 180.976683,148.833019 180.348344,150.588893 C179.702096,152.394814 176.439254,154.776833 176.439254,154.776833 C172.652254,155.484833 169.223254,152.776833 166.699254,152.849833 L161.611254,145.863833 C159.182254,144.012833 160.258254,143.546833 152.540254,141.878833 C149.055254,141.697833 137.910254,140.719833 152.191254,152.375833 L156.412254,159.926833 C156.759254,160.454833 157.212254,160.904833 157.734254,161.282833 C157.865254,161.538833 158.034254,161.807833 158.253254,162.094833 L175.267254,177.001833 C181.571915,182.30681 190.566897,187.493594 196.730276,185.260673 C204.198423,182.555049 208.395236,171.131856 210.015254,163.833833 L208.863254,142.923833 C208.889254,142.076833 208.705254,141.090833 208.235254,139.921833 Z" id="Hand" fill="#D4B27E" transform="translate(177.560574, 136.533252) rotate(-295.000000) translate(-177.560574, -136.533252) "></path>
                            <g id="Face" stroke-width="1" fill="none">
                                <path d="M21.1692066,97 C22.1692066,97 3.66920661,90.5 1.16920661,83.7531967 C-0.6474685,77.2541961 -1.33079339,64 6.66920661,59.5 C6.16920661,38.5 43.5363397,18.6087093 43.6692066,18.5 C54.6692047,9.5 52.169203,-4.35353763e-08 52.1692047,-4.51028104e-16 C52.1692047,-4.51028104e-16 59.6692047,1.5 63.1692047,8.5 C68.1692047,-1 98.1692047,-5.5 96.6692047,24 C96.6692047,24 85.1692047,14 85.1692047,19 C85.0192222,25.4492464 83.1692047,34 105.669205,63 C109.669205,69.5 102.169205,80 96.6692047,80 C97.7545129,81.8968024 105.169205,84.5 102.669205,92 C111.169205,97.5 110.952733,103.60643 113.169205,108 C117.239604,116.068491 120.669205,121 127.169205,126.5 C129.381882,128.372265 127.169205,133 125.669205,132 C127.169205,135 124.669207,137.5 124.669207,137.5 C104,142 100.169207,173 72.6692066,172.5 C46.8892587,172.5 13.1692066,145 11.6692066,122 C10.5503726,114.521478 12.6692066,104.5 21.1692066,97 Z" id="Rectangle-1" fill="#404040"></path>
                                <path d="M41.1692066,117 C42.1692066,117 24.5,117 21.1692066,103.753197 C19.3525315,97.2541961 18.6692066,84 26.6692066,79.5 C41.1692066,72.9999998 47,114 47,114 C51,120.5 43.5,121 41.1692066,117 Z" id="Rectangle-1-Copy-2" fill="#D4B27E"></path>
                                <path d="M22.5000003,115.893597 C23.5000003,115.893597 35.5000012,123.499998 43.5000012,99.0000003 C50.4225335,93.5458837 57.5496656,82.7959116 61.0000012,77.4999998 C65.7736122,70.1729956 67.0000012,65.9999998 72.3901061,63.3081044 C81.0339137,58.6873176 93.3843068,59.7957739 106.000002,70.5000004 C110.500002,74.5000001 106.500002,82.0000009 101.000002,82.0000009 C102.08531,83.8968032 105.169205,84.5 102.669205,92 C111.169205,97.5 110.952733,103.60643 113.169205,108 C117.239604,116.068491 120.669205,121 127.169205,126.5 C129.117791,128.148803 127.634347,131.934577 126.228018,132.131808 C126.037418,132.158539 116.179033,134.619355 116.000002,134.500001 C116.066561,134.63312 125.794448,133.265253 125.845823,133.396228 C126.952262,136.216942 124.669207,137.5 124.669207,137.5 C104,142 100.169207,173 72.6692066,172.5 C46.8892587,172.5 13.1692066,145 11.6692066,122 C10.5503726,114.521478 14.0000003,123.393597 22.5000003,115.893597 Z" id="Rectangle-1-Copy" fill="#D4B27E"></path>
                                <path d="M59.4040913,85.0198322 C67.0633792,80.8793607 70.5683276,56.9985903 88.0683276,76.498591 C75.9620521,72.3266269 65.3926419,83.2686353 59.4040913,85.0198322 Z" id="Rectangle-1-Copy-3" fill="#404040" transform="translate(73.736209, 76.977620) rotate(-4.000000) translate(-73.736209, -76.977620) "></path>
                                <path d="M81.5,94 C85.6421356,94 91,91.6421356 91,87.5 C91,83.3578644 87.6421356,80 83.5,80 C79.3578644,80 70.5,84.3578644 70.5,88.5 C70.5,92.6421356 77.3578644,94 81.5,94 Z" id="Oval-1" fill="#FFFFFF"></path>
                                <path d="M101.5,92 C105.642136,92 105.5,89.6421356 105.5,85.5 C105.5,81.3578644 99.5,82.5 99.5,82.5 C99.5,82.5 90.5,83.9313962 90.5,86.5 C90.5,90.6421356 97.3578644,92 101.5,92 Z" id="Oval-1-Copy" fill="#FFFFFF"></path>
                                <circle id="Oval-2" fill="#404040" cx="85" cy="87" r="5"></circle>
                                <path d="M100,91 C102.761424,91 105,88.7614237 105,86 C105,83.2385763 102.5,81.5 100,82 C97.5,82.5 95,83.2385763 95,86 C95,88.7614237 97.2385763,91 100,91 Z" id="Oval-2-Copy" fill="#404040"></path>
                                <g id="Nose" transform="translate(106.070549, 101.636916) rotate(17.000000) translate(-106.070549, -101.636916) translate(98.570549, 94.636916)" fill="#404040">
                                    <ellipse id="Oval-11-Copy" transform="translate(6.879900, 9.846165) rotate(-341.000000) translate(-6.879900, -9.846165) " cx="6.87990026" cy="9.84616545" rx="6.54500008" ry="2.02999997"></ellipse>
                                    <ellipse id="Oval-11-Copy-2" transform="translate(9.789446, 6.937075) rotate(-295.000000) translate(-9.789446, -6.937075) " cx="9.78944564" cy="6.93707454" rx="6.54545455" ry="2.02999997"></ellipse>
                                </g>
                            </g>
                        </g>
                    </g>
                </g>
                <path d="M166.45,201.68 C165.969998,202.240003 165.365004,202.669998 164.635,202.97 C163.904996,203.270002 163.090004,203.42 162.19,203.42 C161.689997,203.42 161.165003,203.350001 160.615,203.21 C160.064997,203.069999 159.555002,202.835002 159.085,202.505 C158.614998,202.174998 158.225002,201.730003 157.915,201.17 C157.604998,200.609997 157.45,199.910004 157.45,199.07 C157.45,198.249996 157.614998,197.520003 157.945,196.88 C158.275002,196.239997 158.729997,195.705002 159.31,195.275 C159.890003,194.844998 160.574996,194.520001 161.365,194.3 C162.155004,194.079999 163.009995,193.97 163.93,193.97 C164.430002,193.97 164.934997,193.98 165.445,194 C165.955003,194.02 166.289999,194.05 166.45,194.09 L166.45,193.79 C166.45,193.429998 166.375001,193.125001 166.225,192.875 C166.074999,192.624999 165.875001,192.415001 165.625,192.245 C165.374999,192.074999 165.090002,191.955 164.77,191.885 C164.449998,191.815 164.110002,191.78 163.75,191.78 C162.789995,191.78 161.995003,191.899999 161.365,192.14 C160.734997,192.380001 160.200002,192.649999 159.76,192.95 L157.99,190.31 C158.290001,190.089999 158.629998,189.870001 159.01,189.65 C159.390002,189.429999 159.839997,189.230001 160.36,189.05 C160.880003,188.869999 161.464997,188.725001 162.115,188.615 C162.765003,188.504999 163.509996,188.45 164.35,188.45 C166.490011,188.45 168.069995,189.024994 169.09,190.175 C170.110005,191.325006 170.62,192.86999 170.62,194.81 L170.62,203 L166.57,203 L166.45,201.68 Z M166.45,196.79 C166.349999,196.77 166.160001,196.745 165.88,196.715 C165.599999,196.685 165.280002,196.67 164.92,196.67 C163.719994,196.67 162.870002,196.839998 162.37,197.18 C161.869997,197.520002 161.62,197.999997 161.62,198.62 C161.62,199.780006 162.319993,200.36 163.72,200.36 C164.060002,200.36 164.394998,200.305001 164.725,200.195 C165.055002,200.084999 165.344999,199.930001 165.595,199.73 C165.845001,199.529999 166.049999,199.280001 166.21,198.98 C166.370001,198.679999 166.45,198.330002 166.45,197.93 L166.45,196.79 Z M175.74,188.93 L179.88,188.93 C179.92,189.190001 179.95,189.444999 179.97,189.695 C179.99,189.945001 180.01,190.199999 180.03,190.46 C180.490002,189.879997 181.079996,189.435002 181.8,189.125 C182.520004,188.814998 183.269996,188.66 184.05,188.66 C185.070005,188.66 185.969996,188.859998 186.75,189.26 C187.530004,189.660002 188.179997,190.194997 188.7,190.865 C189.220003,191.535003 189.609999,192.304996 189.87,193.175 C190.130001,194.045004 190.26,194.939995 190.26,195.86 C190.26,197.160007 190.040002,198.289995 189.6,199.25 C189.159998,200.210005 188.590003,200.999997 187.89,201.62 C187.189996,202.240003 186.400004,202.699998 185.52,203 C184.639996,203.300002 183.770004,203.45 182.91,203.45 C182.229997,203.45 181.670002,203.390001 181.23,203.27 C180.789998,203.149999 180.390002,203.030001 180.03,202.91 L180.03,209 L175.74,209 L175.74,188.93 Z M180.03,199.28 C180.590003,199.660002 181.419994,199.85 182.52,199.85 C183.580005,199.85 184.414997,199.495004 185.025,198.785 C185.635003,198.074996 185.94,197.130006 185.94,195.95 C185.94,195.489998 185.885001,195.040002 185.775,194.6 C185.664999,194.159998 185.495001,193.775002 185.265,193.445 C185.034999,193.114998 184.735002,192.850001 184.365,192.65 C183.994998,192.449999 183.540003,192.35 183,192.35 C182.519998,192.35 182.095002,192.439999 181.725,192.62 C181.354998,192.800001 181.045001,193.039998 180.795,193.34 C180.544999,193.640002 180.355001,193.979998 180.225,194.36 C180.094999,194.740002 180.03,195.129998 180.03,195.53 L180.03,199.28 Z M208.13,201.47 C207.969999,201.57 207.730002,201.734999 207.41,201.965 C207.089998,202.195001 206.675003,202.419999 206.165,202.64 C205.654997,202.860001 205.050003,203.054999 204.35,203.225 C203.649996,203.395001 202.850004,203.48 201.95,203.48 C200.749994,203.48 199.670005,203.295002 198.71,202.925 C197.749995,202.554998 196.935003,202.040003 196.265,201.38 C195.594997,200.719997 195.085002,199.925005 194.735,198.995 C194.384998,198.064995 194.21,197.040006 194.21,195.92 C194.21,194.939995 194.374998,193.995005 194.705,193.085 C195.035002,192.174995 195.509997,191.380003 196.13,190.7 C196.750003,190.019997 197.509995,189.475002 198.41,189.065 C199.310004,188.654998 200.329994,188.45 201.47,188.45 C202.610006,188.45 203.609996,188.649998 204.47,189.05 C205.330004,189.450002 206.054997,190.004996 206.645,190.715 C207.235003,191.425004 207.679998,192.274995 207.98,193.265 C208.280001,194.255005 208.43,195.339994 208.43,196.52 L208.43,197.24 L198.41,197.24 C198.43,198.000004 198.764997,198.664997 199.415,199.235 C200.065003,199.805003 200.959994,200.09 202.1,200.09 C203.220006,200.09 204.129996,199.925002 204.83,199.595 C205.530003,199.264998 206.039998,198.980001 206.36,198.74 L208.13,201.47 Z M204.35,194.48 C204.35,194.179999 204.290001,193.875002 204.17,193.565 C204.049999,193.254998 203.870001,192.970001 203.63,192.71 C203.389999,192.449999 203.090002,192.235001 202.73,192.065 C202.369998,191.894999 201.940002,191.81 201.44,191.81 C200.939997,191.81 200.500002,191.894999 200.12,192.065 C199.739998,192.235001 199.425001,192.449999 199.175,192.71 C198.924999,192.970001 198.735001,193.254998 198.605,193.565 C198.474999,193.875002 198.41,194.179999 198.41,194.48 L204.35,194.48 Z" id="ape" fill="#404040"></path>
                <path d="M35.735,201.47 C35.5749992,201.57 35.3350016,201.734999 35.015,201.965 C34.6949984,202.195001 34.2800026,202.419999 33.77,202.64 C33.2599975,202.860001 32.6550035,203.054999 31.955,203.225 C31.2549965,203.395001 30.4550045,203.48 29.555,203.48 C28.354994,203.48 27.2750048,203.295002 26.315,202.925 C25.3549952,202.554998 24.5400034,202.040003 23.87,201.38 C23.1999967,200.719997 22.6900018,199.925005 22.34,198.995 C21.9899983,198.064995 21.815,197.040006 21.815,195.92 C21.815,194.939995 21.9799984,193.995005 22.31,193.085 C22.6400017,192.174995 23.1149969,191.380003 23.735,190.7 C24.3550031,190.019997 25.1149955,189.475002 26.015,189.065 C26.9150045,188.654998 27.9349943,188.45 29.075,188.45 C30.2150057,188.45 31.2149957,188.649998 32.075,189.05 C32.9350043,189.450002 33.6599971,190.004996 34.25,190.715 C34.840003,191.425004 35.2849985,192.274995 35.585,193.265 C35.8850015,194.255005 36.035,195.339994 36.035,196.52 L36.035,197.24 L26.015,197.24 C26.0350001,198.000004 26.3699968,198.664997 27.02,199.235 C27.6700033,199.805003 28.5649943,200.09 29.705,200.09 C30.8250056,200.09 31.7349965,199.925002 32.435,199.595 C33.1350035,199.264998 33.6449984,198.980001 33.965,198.74 L35.735,201.47 Z M31.955,194.48 C31.955,194.179999 31.8950006,193.875002 31.775,193.565 C31.6549994,193.254998 31.4750012,192.970001 31.235,192.71 C30.9949988,192.449999 30.6950018,192.235001 30.335,192.065 C29.9749982,191.894999 29.5450025,191.81 29.045,191.81 C28.5449975,191.81 28.1050019,191.894999 27.725,192.065 C27.3449981,192.235001 27.0300013,192.449999 26.78,192.71 C26.5299988,192.970001 26.3400007,193.254998 26.21,193.565 C26.0799994,193.875002 26.015,194.179999 26.015,194.48 L31.955,194.48 Z M40.495,182.99 L44.815,182.99 L44.815,203 L40.495,203 L40.495,182.99 Z M63.285,201.47 C63.1249992,201.57 62.8850016,201.734999 62.565,201.965 C62.2449984,202.195001 61.8300026,202.419999 61.32,202.64 C60.8099975,202.860001 60.2050035,203.054999 59.505,203.225 C58.8049965,203.395001 58.0050045,203.48 57.105,203.48 C55.904994,203.48 54.8250048,203.295002 53.865,202.925 C52.9049952,202.554998 52.0900034,202.040003 51.42,201.38 C50.7499967,200.719997 50.2400018,199.925005 49.89,198.995 C49.5399983,198.064995 49.365,197.040006 49.365,195.92 C49.365,194.939995 49.5299984,193.995005 49.86,193.085 C50.1900017,192.174995 50.6649969,191.380003 51.285,190.7 C51.9050031,190.019997 52.6649955,189.475002 53.565,189.065 C54.4650045,188.654998 55.4849943,188.45 56.625,188.45 C57.7650057,188.45 58.7649957,188.649998 59.625,189.05 C60.4850043,189.450002 61.2099971,190.004996 61.8,190.715 C62.390003,191.425004 62.8349985,192.274995 63.135,193.265 C63.4350015,194.255005 63.585,195.339994 63.585,196.52 L63.585,197.24 L53.565,197.24 C53.5850001,198.000004 53.9199968,198.664997 54.57,199.235 C55.2200033,199.805003 56.1149943,200.09 57.255,200.09 C58.3750056,200.09 59.2849965,199.925002 59.985,199.595 C60.6850035,199.264998 61.1949984,198.980001 61.515,198.74 L63.285,201.47 Z M59.505,194.48 C59.505,194.179999 59.4450006,193.875002 59.325,193.565 C59.2049994,193.254998 59.0250012,192.970001 58.785,192.71 C58.5449988,192.449999 58.2450018,192.235001 57.885,192.065 C57.5249982,191.894999 57.0950025,191.81 56.595,191.81 C56.0949975,191.81 55.6550019,191.894999 55.275,192.065 C54.8949981,192.235001 54.5800013,192.449999 54.33,192.71 C54.0799988,192.970001 53.8900007,193.254998 53.76,193.565 C53.6299994,193.875002 53.565,194.179999 53.565,194.48 L59.505,194.48 Z M65.855,188.93 L70.655,188.93 L73.985,198.17 L77.195,188.93 L81.905,188.93 L75.875,203 L71.795,203 L65.855,188.93 Z M93.505,201.68 C93.0249976,202.240003 92.4200037,202.669998 91.69,202.97 C90.9599964,203.270002 90.1450045,203.42 89.245,203.42 C88.7449975,203.42 88.2200028,203.350001 87.67,203.21 C87.1199973,203.069999 86.6100024,202.835002 86.14,202.505 C85.6699977,202.174998 85.2800016,201.730003 84.97,201.17 C84.6599985,200.609997 84.505,199.910004 84.505,199.07 C84.505,198.249996 84.6699984,197.520003 85,196.88 C85.3300017,196.239997 85.7849971,195.705002 86.365,195.275 C86.9450029,194.844998 87.6299961,194.520001 88.42,194.3 C89.210004,194.079999 90.0649954,193.97 90.985,193.97 C91.4850025,193.97 91.9899975,193.98 92.5,194 C93.0100026,194.02 93.3449992,194.05 93.505,194.09 L93.505,193.79 C93.505,193.429998 93.4300008,193.125001 93.28,192.875 C93.1299993,192.624999 92.9300013,192.415001 92.68,192.245 C92.4299988,192.074999 92.1450016,191.955 91.825,191.885 C91.5049984,191.815 91.1650018,191.78 90.805,191.78 C89.8449952,191.78 89.0500032,191.899999 88.42,192.14 C87.7899969,192.380001 87.2550022,192.649999 86.815,192.95 L85.045,190.31 C85.3450015,190.089999 85.6849981,189.870001 86.065,189.65 C86.4450019,189.429999 86.8949974,189.230001 87.415,189.05 C87.9350026,188.869999 88.5199968,188.725001 89.17,188.615 C89.8200033,188.504999 90.5649958,188.45 91.405,188.45 C93.5450107,188.45 95.1249949,189.024994 96.145,190.175 C97.1650051,191.325006 97.675,192.86999 97.675,194.81 L97.675,203 L93.625,203 L93.505,201.68 Z M93.505,196.79 C93.4049995,196.77 93.2150014,196.745 92.935,196.715 C92.6549986,196.685 92.3350018,196.67 91.975,196.67 C90.774994,196.67 89.9250025,196.839998 89.425,197.18 C88.9249975,197.520002 88.675,197.999997 88.675,198.62 C88.675,199.780006 89.374993,200.36 90.775,200.36 C91.1150017,200.36 91.4499984,200.305001 91.78,200.195 C92.1100017,200.084999 92.3999988,199.930001 92.65,199.73 C92.9000013,199.529999 93.1049992,199.280001 93.265,198.98 C93.4250008,198.679999 93.505,198.330002 93.505,197.93 L93.505,196.79 Z M103.845,192.32 L101.625,192.32 L101.625,188.93 L103.845,188.93 L103.845,184.67 L108.165,184.67 L108.165,188.93 L111.795,188.93 L111.795,192.32 L108.165,192.32 L108.165,197.87 C108.165,198.550003 108.299999,199.074998 108.57,199.445 C108.840001,199.815002 109.264997,200 109.845,200 C110.285002,200 110.664998,199.925001 110.985,199.775 C111.305002,199.624999 111.604999,199.450001 111.885,199.25 L113.625,201.89 C112.264993,202.970005 110.785008,203.51 109.185,203.51 C108.184995,203.51 107.345003,203.365001 106.665,203.075 C105.984997,202.784999 105.435002,202.385003 105.015,201.875 C104.594998,201.364997 104.295001,200.750004 104.115,200.03 C103.934999,199.309996 103.845,198.510004 103.845,197.63 L103.845,192.32 Z M130.025,201.47 C129.864999,201.57 129.625002,201.734999 129.305,201.965 C128.984998,202.195001 128.570003,202.419999 128.06,202.64 C127.549997,202.860001 126.945004,203.054999 126.245,203.225 C125.544997,203.395001 124.745005,203.48 123.845,203.48 C122.644994,203.48 121.565005,203.295002 120.605,202.925 C119.644995,202.554998 118.830003,202.040003 118.16,201.38 C117.489997,200.719997 116.980002,199.925005 116.63,198.995 C116.279998,198.064995 116.105,197.040006 116.105,195.92 C116.105,194.939995 116.269998,193.995005 116.6,193.085 C116.930002,192.174995 117.404997,191.380003 118.025,190.7 C118.645003,190.019997 119.404996,189.475002 120.305,189.065 C121.205005,188.654998 122.224994,188.45 123.365,188.45 C124.505006,188.45 125.504996,188.649998 126.365,189.05 C127.225004,189.450002 127.949997,190.004996 128.54,190.715 C129.130003,191.425004 129.574999,192.274995 129.875,193.265 C130.175002,194.255005 130.325,195.339994 130.325,196.52 L130.325,197.24 L120.305,197.24 C120.325,198.000004 120.659997,198.664997 121.31,199.235 C121.960003,199.805003 122.854994,200.09 123.995,200.09 C125.115006,200.09 126.024997,199.925002 126.725,199.595 C127.425004,199.264998 127.934998,198.980001 128.255,198.74 L130.025,201.47 Z M126.245,194.48 C126.245,194.179999 126.185001,193.875002 126.065,193.565 C125.944999,193.254998 125.765001,192.970001 125.525,192.71 C125.284999,192.449999 124.985002,192.235001 124.625,192.065 C124.264998,191.894999 123.835003,191.81 123.335,191.81 C122.834998,191.81 122.395002,191.894999 122.015,192.065 C121.634998,192.235001 121.320001,192.449999 121.07,192.71 C120.819999,192.970001 120.630001,193.254998 120.5,193.565 C120.369999,193.875002 120.305,194.179999 120.305,194.48 L126.245,194.48 Z M144.355,201.59 C143.914998,202.110003 143.350003,202.544998 142.66,202.895 C141.969997,203.245002 141.185004,203.42 140.305,203.42 C139.444996,203.42 138.640004,203.250002 137.89,202.91 C137.139996,202.569998 136.490003,202.085003 135.94,201.455 C135.389997,200.824997 134.955002,200.065004 134.635,199.175 C134.314998,198.284996 134.155,197.280006 134.155,196.16 C134.155,194.899994 134.379998,193.795005 134.83,192.845 C135.280002,191.894995 135.859996,191.110003 136.57,190.49 C137.280004,189.869997 138.069996,189.405002 138.94,189.095 C139.810004,188.784998 140.664996,188.63 141.505,188.63 C142.185003,188.63 142.714998,188.675 143.095,188.765 C143.475002,188.855 143.864998,188.969999 144.265,189.11 L144.265,182.99 L148.555,182.99 L148.555,203 L144.535,203 L144.355,201.59 Z M144.265,192.8 C143.964999,192.619999 143.640002,192.49 143.29,192.41 C142.939998,192.33 142.505003,192.29 141.985,192.29 C140.884995,192.29 140.030003,192.659996 139.42,193.4 C138.809997,194.140004 138.505,195.089994 138.505,196.25 C138.505,197.270005 138.754998,198.104997 139.255,198.755 C139.755003,199.405003 140.504995,199.73 141.505,199.73 C141.985002,199.73 142.399998,199.645001 142.75,199.475 C143.100002,199.304999 143.389999,199.080001 143.62,198.8 C143.850001,198.519999 144.015,198.190002 144.115,197.81 C144.215001,197.429998 144.265,197.040002 144.265,196.64 L144.265,192.8 Z" id="elevated" fill="#E04FA8"></path>
            </g>
        </g>
    </g>
</svg>